<?xml version="1.0" encoding="UTF-8"?><svg id="Layer_1" xmlns="http://www.w3.org/2000/svg" viewBox="0 0 1131.2 362.1"><defs><style>.cls-1,.cls-2{fill:#ed867f;}.cls-3,.cls-4,.cls-5{fill:#372e67;}.cls-4{font-family:Futura-Bold, Futura;font-size:64px;font-weight:700;}.cls-2,.cls-5{fill-rule:evenodd;}</style></defs><g><path class="cls-1" d="m336.6,357l-42.2-.7c-24,0-40.5-11.2-56.8-31.8-13.7-17.4-36.8-73.2-37.7-75.4-.4,1-22.2,56.2-36.6,74.3-17.1,21.4-35.7,32.8-61.1,32.8h-37.4l32-11.3c11.6-4.1,22.1-20.7,31.2-49.4,8.6-27,15-61,21.2-93.9,13-68.8,23.2-123.2,51-123.2s27.5,23.5,33.1,41.2c7.3,22.8,13.1,52.8,19.1,84.6,6.2,32.5,12.6,66,21,92.6,8.9,28.1,18.9,44.3,29.9,48.2l33.2,11.9Z"/><path class="cls-2" d="m164.8,40.3c0-22.2,15.7-40.3,35-40.3s35,18,35,40.3-15.7,40.3-35,40.3-35-18-35-40.3Z"/></g><path class="cls-3" d="m200,251.3c-19.8,44.9-38.2,105.6-96.7,105.6h-44.7L0,93h64.7c96.5,0,35.9,124.4,35.9,262.4,58.5-19.8,52.5-261.9,99.6-261.9s41.6,243,97.6,263c0-132.4-58.6-263.4,35.9-263.4h64.7l-58.5,263.9h-46.4c-57.1,0-73.9-61.7-93.6-105.6Z"/><path class="cls-3" d="m691.1,244.4c13.9-31.4,26.8-74,67.7-74h31.3v184.8h-59l29.5-174.8c-41,13.8-36.3,174.8-69.3,174.8s-29.6-161-68.8-175l29.5,175h-59v-184.8h32.5c40,0,51.7,43.2,65.6,74Z"/><path class="cls-3" d="m1088.7,355.2h-35.2c-33.3,0-33.8-161.6-73-175.6l33.7,175.6h-59v-184.8h32.5c37.5,0,66.3,122,94.7,152l-28.9-152h59v184.8h-23.8Z"/><path class="cls-5" d="m473.9,271.8c15.5,38.3,37.9,65.4,50.2,60.4,12.2-4.9,9.6-40-5.9-78.3-15.5-38.3-37.9-65.4-50.2-60.4-12.2,4.9-9.6,40,5.9,78.3Zm-64.1-9c0-54.8,38.6-99.3,86.3-99.3s86.3,44.4,86.3,99.3-38.6,99.3-86.3,99.3-86.3-44.4-86.3-99.3Z"/><path class="cls-3" d="m852,213.5c31.3,9.3,56.7,19.3,54.3,25.7-2.2,5.9-29.8-5.4-53.1,5l3.5,94.4c47.6-10.5,61.9-44.8,87.4-44.8v61.5h-142.8v-184.8h142.8v61.5c-26.4,0-40.9-37-93-45.9l1,27.4Z"/><text class="cls-4" transform="translate(432.7 138.2)"><tspan x="0" y="0">ARAB CREATIVE</tspan></text></svg>